<svg width="57" height="58" viewBox="0 0 57 58" fill="none" xmlns="http://www.w3.org/2000/svg">
<path fill-rule="evenodd" clip-rule="evenodd" d="M31.5305 0.160672C30.099 0.546536 30.0734 0.5692 21.8019 8.78919C16.787 13.7728 13.8985 16.7247 13.7443 17.0238C13.4272 17.6389 13.4058 18.7951 13.7011 19.3597C14.2123 20.337 15.0044 20.8378 16.1719 20.9218L16.935 20.9767V23.6164V26.256L17.2328 26.4908C17.6245 26.7997 17.981 26.7877 18.37 26.4524L18.6872 26.179L18.7201 22.911L18.753 19.643L25.7289 12.6494L32.7048 5.6557L39.7389 12.6796L46.773 19.7034L46.8042 25.5346L46.8354 31.3658L47.0835 31.6145C47.4136 31.9451 47.9448 31.9379 48.3059 31.5977L48.5877 31.3324V26.1582V20.984L49.2377 20.9815C50.0603 20.9783 50.597 20.7495 51.1693 20.1584C51.6697 19.6416 51.9796 18.8826 51.9779 18.178C51.9754 17.127 51.9276 17.0732 43.5406 8.69003C38.2317 3.38346 35.4876 0.718787 35.1669 0.558548C34.0415 -0.00341981 32.6883 -0.151533 31.5305 0.160672ZM42.7093 1.63512C42.1941 1.85847 41.6197 2.41636 41.3197 2.98456C41.146 3.31399 41.0792 3.64966 41.0753 4.21253C41.0708 4.89326 41.1025 5.0135 41.337 5.20411C41.6737 5.47767 42.1571 5.48186 42.4869 5.21408C42.6722 5.0637 42.7666 4.82413 42.8326 4.33605C42.9604 3.39275 43.1433 3.26787 44.3977 3.26787C45.9266 3.26787 45.8563 3.10106 45.8974 6.82066L45.9311 9.86054L46.2483 10.1339C46.6533 10.4829 47.0544 10.4813 47.4058 10.129L47.6833 9.85091V6.66903C47.6833 4.25548 47.6464 3.39921 47.5309 3.12259C47.2837 2.53139 46.7711 2.00738 46.1618 1.72294C45.6706 1.49358 45.4203 1.45743 44.3485 1.46026C43.4942 1.46252 42.9811 1.51726 42.7093 1.63512ZM34.3031 2.17997C34.7082 2.40095 37.0431 4.66911 42.5196 10.1612C49.4337 17.095 50.1703 17.8684 50.1703 18.1937C50.1703 18.7451 49.7377 19.1818 49.2066 19.1666C48.7966 19.1551 48.4722 18.8473 41.1941 11.563C37.0224 7.38761 33.498 3.91506 33.3623 3.84627C33.0451 3.68558 32.3645 3.68558 32.0473 3.84627C31.9115 3.91506 28.3818 7.39294 24.2036 11.5748C16.8751 18.9097 16.5922 19.1778 16.1984 19.1667C15.4872 19.1464 15.0528 18.4518 15.3733 17.847C15.6051 17.4091 30.7397 2.41886 31.1806 2.19028C31.8289 1.85417 32.1026 1.79909 32.9385 1.83604C33.5489 1.86301 33.8709 1.94415 34.3031 2.17997ZM28.7253 21.6278C27.7617 21.8268 26.9162 22.4948 26.4667 23.4123C26.18 23.9975 26.1442 24.2021 26.1081 25.4556C26.082 26.3628 26.115 26.962 26.2027 27.174C26.3618 27.5594 26.8409 27.7889 27.2639 27.6825C27.7962 27.5485 27.9004 27.2538 27.9006 25.8788C27.9007 24.4903 28.0438 24.0376 28.6152 23.6174C28.9226 23.3913 29.0702 23.3827 32.6283 23.3827C37.7142 23.3827 37.3962 23.1334 37.3962 27.1202V29.8029L37.7266 30.1341C38.1338 30.5423 38.4072 30.5515 38.8571 30.172L39.2049 29.8786V27.0758C39.2049 23.8867 39.1452 23.5629 38.401 22.7154C38.1513 22.431 37.6677 22.065 37.3073 21.8875L36.6614 21.5695L32.9309 21.5496C30.8791 21.5386 28.9865 21.5738 28.7253 21.6278ZM19.3654 28.152C18.2461 28.4016 17.4199 28.7585 16.0589 29.5801C13.9593 30.8475 11.3395 33.1556 10.8589 34.1612C10.7141 34.4644 10.7123 34.5598 10.8462 34.8401C10.932 35.0195 11.1351 35.23 11.2974 35.3081C11.7517 35.5264 12.1689 35.3124 12.8088 34.5333C14.0765 32.9897 16.882 30.907 18.64 30.2041C21.2621 29.156 24.1531 29.7123 26.5491 31.7261C27.6048 32.6133 28.765 33.2341 29.6962 33.41C30.0312 33.4733 31.7099 33.5262 33.4267 33.5276C36.2238 33.5298 36.5954 33.5518 37.0005 33.7399C38.2609 34.3249 38.7872 35.8548 38.1366 37.0424C37.9842 37.3205 37.7953 37.6877 37.7167 37.8583C37.4123 38.5189 37.145 38.5624 33.0055 38.6246L29.2366 38.6813L29.0206 38.9488C28.7109 39.3326 28.7515 39.7219 29.1421 40.1134L29.4795 40.4517L33.2399 40.4126C37.46 40.3688 37.498 40.3624 38.6137 39.518C39.1215 39.1338 39.47 38.9913 40.6986 38.6665C44.3989 37.688 47.2146 36.5765 49.7181 35.106C51.264 34.198 52.6954 34.0847 54.0671 34.7615C55.3726 35.4059 55.574 35.9795 54.7665 36.7551C53.4159 38.0523 49.2633 40.9163 46.2137 42.6537C42.1115 44.9906 39.5554 45.899 36.2092 46.2092C35.5253 46.2725 32.0406 46.4024 28.4656 46.4978C24.8905 46.5932 21.7634 46.6991 21.5162 46.733C21.2691 46.7668 20.9767 46.8767 20.8662 46.9768C20.5703 47.2453 20.6065 47.8681 20.9372 48.1998C21.1843 48.4475 21.2793 48.4675 21.9829 48.4193C22.4085 48.3902 25.6055 48.2906 29.0873 48.198C32.5691 48.1054 35.7231 48.0018 36.0961 47.9678C39.5064 47.657 41.9954 46.8747 45.3561 45.0576C48.4996 43.358 51.2873 41.5916 53.9008 39.6437C56.7285 37.5361 57.0056 37.1971 56.9999 35.8519C56.9958 34.8955 56.8255 34.5244 56.0944 33.8792C55.0616 32.9679 53.755 32.5087 52.1887 32.5065C50.9774 32.5048 49.9875 32.7884 48.8115 33.4739C46.7994 34.6466 43.8798 35.8524 41.2806 36.584C40.6148 36.7714 40.0662 36.9245 40.0614 36.9243C40.0566 36.9241 40.0521 36.4524 40.0513 35.8761C40.0501 34.9795 40.0063 34.7346 39.7474 34.1783C39.3617 33.3493 38.5389 32.5243 37.6763 32.1015L37.0005 31.7703L33.3831 31.7128L29.7656 31.6552L29.0308 31.3028C28.6267 31.1089 28.0671 30.7473 27.7873 30.4991C26.6248 29.4682 25.4459 28.8085 23.8824 28.3136C22.8255 27.9791 20.5118 27.8963 19.3654 28.152ZM6.24168 35.7881C5.42708 35.9622 4.83268 36.3279 2.40865 38.1466C0.303977 39.7258 0.030859 39.9674 0.000788989 40.2761C-0.0289419 40.5813 0.758079 41.6801 6.37338 49.1719C9.89689 53.8731 12.8597 57.7833 12.9572 57.8612C13.3655 58.1871 13.715 58.0207 15.8744 56.4723C17.0484 55.6304 18.2506 54.7059 18.5459 54.4178C19.7255 53.2674 20.1961 51.3775 19.6587 49.9493C19.4864 49.4917 18.1498 47.6182 14.7896 43.1248C9.94674 36.6488 9.69035 36.3534 8.56962 35.9602C7.93612 35.7378 6.85201 35.6577 6.24168 35.7881ZM7.83483 37.5049C8.08353 37.5739 8.436 37.7366 8.61823 37.8665C8.99998 38.1386 17.5357 49.5345 17.9217 50.2877C18.2715 50.97 18.2547 51.6026 17.8676 52.3222C17.6041 52.8122 17.2687 53.1161 15.6654 54.3182C14.6251 55.0982 13.729 55.7364 13.674 55.7364C13.5697 55.7364 2.39418 40.906 2.28645 40.6248C2.24485 40.5162 2.83834 40.0144 4.12559 39.07C6.46291 37.355 6.79323 37.2157 7.83483 37.5049Z" fill="#0061E0"/>
</svg>
